<svg width="74" height="74" viewBox="0 0 74 74" fill="none" xmlns="http://www.w3.org/2000/svg">
<g clip-path="url(#clip0_29_64)">
<path d="M68.01 19.0538C67.9721 17.0559 67.9358 15.1685 67.9358 13.3426C67.9358 12.6556 67.6629 11.9968 67.1771 11.511C66.6914 11.0253 66.0326 10.7524 65.3456 10.7524C54.2682 10.7524 45.8342 7.56888 38.8041 0.73354C38.3207 0.263232 37.6728 9.15527e-05 36.9984 9.15527e-05C36.3239 9.15527e-05 35.6761 0.263232 35.1927 0.73354C28.1633 7.56888 19.7306 10.7524 8.65395 10.7524C7.96699 10.7524 7.30816 11.0253 6.82241 11.511C6.33665 11.9968 6.06376 12.6556 6.06376 13.3426C6.06376 15.1688 6.02784 17.0569 5.98951 19.0552C5.63448 37.6479 5.14821 63.1115 36.15 73.8574C36.6994 74.0479 37.297 74.0479 37.8464 73.8574C68.8507 63.1112 68.3651 37.6469 68.01 19.0538ZM36.9986 68.6614C10.4104 59.0028 10.8124 37.8444 11.1692 19.1539C11.1906 18.0322 11.2113 16.945 11.2258 15.8792C21.6004 15.4413 29.8966 12.2975 36.9986 6.11077C44.1012 12.2975 52.3988 15.4417 62.7741 15.8792C62.7886 16.9447 62.8093 18.0312 62.8307 19.1522C63.1871 37.8434 63.5888 59.0024 36.9986 68.6614Z" fill="white"/>
<path d="M45.9181 28.0024L33.4164 40.5033L28.0817 35.1686C27.5931 34.6963 26.9386 34.4349 26.2592 34.4407C25.5797 34.4465 24.9298 34.7189 24.4493 35.1994C23.9689 35.6799 23.6965 36.3299 23.6908 37.0094C23.6851 37.6888 23.9465 38.3433 24.4188 38.8318L31.585 45.998C31.8253 46.2388 32.1107 46.4298 32.425 46.5599C32.7393 46.6901 33.0763 46.7568 33.4164 46.7564C33.7566 46.7568 34.0935 46.6901 34.4078 46.5599C34.7221 46.4298 35.0076 46.2388 35.2479 45.998L49.5806 31.6656C49.8212 31.4251 50.0121 31.1396 50.1423 30.8254C50.2725 30.5112 50.3396 30.1744 50.3396 29.8342C50.3396 29.4941 50.2727 29.1572 50.1425 28.843C50.0123 28.5287 49.8215 28.2432 49.5809 28.0027C49.0952 27.517 48.4365 27.2441 47.7496 27.244C47.0627 27.2439 46.4039 27.5167 45.9181 28.0024Z" fill="white"/>
</g>
<defs>
<clipPath id="clip0_29_64">
<rect width="74" height="74" fill="white"/>
</clipPath>
</defs>
</svg>
