<svg width="33" height="37" viewBox="0 0 33 37" fill="none" xmlns="http://www.w3.org/2000/svg">
<path d="M32.005 9.52691C31.986 8.52796 31.9679 7.58426 31.9679 6.67131C31.9679 6.32783 31.8314 5.99841 31.5886 5.75554C31.3457 5.51266 31.0163 5.37621 30.6728 5.37621C25.1341 5.37621 20.9171 3.78445 17.4021 0.366785C17.1603 0.131631 16.8364 6.10352e-05 16.4992 6.10352e-05C16.162 6.10352e-05 15.8381 0.131631 15.5963 0.366785C12.0816 3.78445 7.86532 5.37621 2.32697 5.37621C1.98349 5.37621 1.65408 5.51266 1.4112 5.75554C1.16833 5.99841 1.03188 6.32783 1.03188 6.67131C1.03188 7.58444 1.01392 8.52847 0.994753 9.5276C0.817239 18.824 0.574107 31.5558 16.075 36.9287C16.3497 37.024 16.6485 37.024 16.9232 36.9287C32.4253 31.5556 32.1825 18.8234 32.005 9.52691ZM16.4993 34.3307C3.20522 29.5014 3.40622 18.9222 3.5846 9.57698C3.5953 9.01612 3.60566 8.47253 3.61292 7.93964C8.8002 7.72068 12.9483 6.14878 16.4993 3.0554C20.0506 6.14878 24.1994 7.72085 29.387 7.93964C29.3943 8.47235 29.4046 9.0156 29.4154 9.57612C29.5936 18.9217 29.7944 29.5012 16.4993 34.3307Z" fill="white"/>
<path d="M20.9592 14.0012L14.7083 20.2517L12.041 17.5843C11.7967 17.3482 11.4694 17.2175 11.1297 17.2204C10.79 17.2232 10.465 17.3595 10.2248 17.5997C9.98457 17.84 9.84836 18.165 9.8455 18.5047C9.84265 18.8444 9.97338 19.1717 10.2095 19.4159L13.7926 22.999C13.9128 23.1194 14.0555 23.2149 14.2126 23.28C14.3698 23.345 14.5383 23.3784 14.7083 23.3782C14.8784 23.3784 15.0469 23.345 15.204 23.28C15.3612 23.2149 15.5039 23.1194 15.6241 22.999L22.7904 15.8328C22.9107 15.7126 23.0062 15.5698 23.0713 15.4127C23.1364 15.2556 23.1699 15.0872 23.1699 14.9171C23.1699 14.747 23.1364 14.5786 23.0714 14.4215C23.0063 14.2644 22.9109 14.1216 22.7906 14.0014C22.5477 13.7585 22.2184 13.622 21.8749 13.622C21.5315 13.622 21.2021 13.7584 20.9592 14.0012Z" fill="white"/>
</svg>
