<svg width="41" height="41" viewBox="0 0 41 41" fill="none" xmlns="http://www.w3.org/2000/svg">
<path d="M31.4848 21.9706C30.2412 21.9706 29.0528 22.2107 27.963 22.6466L26.7435 21.427C27.1105 20.7333 27.4119 20.0067 27.6438 19.2569H29.7956C30.459 19.2569 30.9968 18.7191 30.9968 18.0557V12.9403C30.9968 12.277 30.459 11.7392 29.7956 11.7392H27.6438C27.4119 10.9893 27.1105 10.2628 26.7435 9.56903L28.266 8.04646C28.7352 7.57737 28.7346 6.81641 28.266 6.34772L24.6482 2.7306C24.1791 2.26159 23.4186 2.26167 22.9496 2.73068L21.4272 4.25309C20.7336 3.88604 20.0072 3.5846 19.2575 3.35271V1.20114C19.2575 0.537792 18.7197 0 18.0564 0H12.9404C12.277 0 11.7393 0.537792 11.7393 1.20114V3.35231C10.9893 3.58417 10.2626 3.88572 9.56887 4.25301L8.04654 2.73068C7.57737 2.26151 6.81649 2.26199 6.34788 2.73068L2.73068 6.3478C2.26151 6.81689 2.26207 7.57777 2.73068 8.04646L4.25325 9.56911C3.8862 10.2629 3.58471 10.9894 3.35271 11.7393H1.20114C0.537792 11.7393 0 12.277 0 12.9404V18.0557C0 18.7191 0.537792 19.2569 1.20114 19.2569H3.35271C3.58467 20.0067 3.88616 20.7333 4.25325 21.427L2.73068 22.9497C2.26159 23.4187 2.26199 24.1796 2.73068 24.6483L6.34788 28.2655C6.81705 28.7346 7.57793 28.7341 8.04654 28.2655L9.56911 26.7429C10.2629 27.11 10.9894 27.4115 11.7393 27.6434V29.795C11.7393 30.4583 12.277 30.9961 12.9404 30.9961H18.0564C18.7197 30.9961 19.2575 30.4583 19.2575 29.795V27.6434C20.0072 27.4114 20.7335 27.1099 21.427 26.7429L22.6468 27.9626C20.1078 34.0422 24.8726 41.1023 31.4849 40.999C44.0887 40.5211 44.0865 22.447 31.4848 21.9706ZM22.4739 24.3924C22.2813 24.1998 22.029 24.0784 21.7583 24.0481C21.4876 24.0178 21.2146 24.0804 20.9842 24.2256C19.997 24.8478 18.9223 25.2938 17.79 25.5514C17.5245 25.6117 17.2874 25.7605 17.1176 25.9733C16.9478 26.1861 16.8553 26.4503 16.8552 26.7226V28.5937H14.1415V26.7226C14.1415 26.4503 14.049 26.1861 13.8792 25.9733C13.7094 25.7605 13.4723 25.6117 13.2068 25.5514C12.0744 25.2938 10.994 24.8455 10.0119 24.2256C9.78149 24.0804 9.50854 24.0178 9.23785 24.0481C8.96716 24.0784 8.7148 24.1998 8.52219 24.3924L7.19725 25.7174L5.27878 23.7989L6.60373 22.4739C6.79634 22.2813 6.91776 22.029 6.94809 21.7583C6.97841 21.4876 6.91583 21.2147 6.7706 20.9842C6.15066 20.0022 5.70232 18.9218 5.44478 17.7893C5.3844 17.5239 5.23561 17.2868 5.02282 17.1169C4.81002 16.9471 4.54584 16.8546 4.27359 16.8546H2.40229V14.1415H4.27343C4.54568 14.1415 4.80986 14.049 5.02266 13.8791C5.23545 13.7093 5.38424 13.4722 5.44462 13.2067C5.70212 12.0743 6.15046 10.9939 6.77044 10.0118C6.91567 9.7814 6.97825 9.50844 6.94793 9.23775C6.9176 8.96706 6.79618 8.71471 6.60357 8.52211L5.2787 7.19717L7.19717 5.27862L8.52211 6.60357C8.71477 6.79623 8.96721 6.91768 9.23799 6.94796C9.50876 6.97824 9.78179 6.91556 10.0123 6.7702C10.9938 6.14997 12.0739 5.70173 13.2062 5.44478C13.4718 5.3845 13.709 5.23574 13.879 5.0229C14.0489 4.81006 14.1415 4.54579 14.1415 4.27343V2.40229H16.8552V4.27343C16.8552 4.54568 16.9477 4.80986 17.1175 5.02266C17.2873 5.23545 17.5244 5.38423 17.7899 5.44462C18.9221 5.70185 20.0021 6.1501 20.9837 6.77012C21.2142 6.91549 21.4872 6.97818 21.758 6.9479C22.0288 6.91762 22.2812 6.79617 22.4739 6.60348L23.7989 5.27846L25.7178 7.19709L24.393 8.52195C24.2004 8.71455 24.0789 8.9669 24.0486 9.23759C24.0183 9.50828 24.0809 9.78124 24.2261 10.0117C24.8484 10.9991 25.2941 12.0738 25.5511 13.2061C25.6114 13.4717 25.7602 13.7089 25.973 13.8789C26.1858 14.0488 26.4501 14.1414 26.7225 14.1414H28.5943V16.8544H26.7225C26.4501 16.8544 26.1858 16.947 25.973 17.1169C25.7602 17.2869 25.6114 17.5241 25.5511 17.7897C25.2942 18.922 24.8484 19.9968 24.2261 20.9841C24.0809 21.2145 24.0183 21.4874 24.0486 21.7581C24.0789 22.0288 24.2003 22.2812 24.3929 22.4738L25.7178 23.7987L23.7988 25.7173L22.4739 24.3924ZM31.4848 38.5967C27.5632 38.5967 24.3729 35.4063 24.3729 31.4848C24.7304 22.0628 38.2406 22.0654 38.5968 31.4848C38.5967 35.4063 35.4063 38.5967 31.4848 38.5967Z" fill="white"/>
<path d="M33.1294 28.9725L30.6534 31.4484L29.8399 30.6352C29.3707 30.1662 28.6101 30.1664 28.1412 30.6355C27.6722 31.1047 27.6724 31.8652 28.1415 32.3342L29.8044 33.9964C30.2735 34.4653 31.0339 34.4654 31.5029 33.9963L34.828 30.6712C35.2971 30.2021 35.2971 29.4416 34.828 28.9725C34.359 28.5034 33.5985 28.5034 33.1294 28.9725ZM15.498 7.90207C11.3099 7.90207 7.90259 11.3096 7.90259 15.498C8.28447 25.5616 22.7136 25.5582 23.0939 15.4979C23.094 11.3096 19.6864 7.90207 15.498 7.90207ZM15.498 20.6917C12.6345 20.6917 10.3049 18.3618 10.3049 15.498C10.5659 8.61699 20.4316 8.61955 20.6916 15.4981C20.6917 18.3619 18.3618 20.6917 15.498 20.6917Z" fill="white"/>
</svg>
