<svg width="35" height="35" viewBox="0 0 35 35" fill="none" xmlns="http://www.w3.org/2000/svg">
<path d="M5.41864 12.0814H1.02539C0.459102 12.0814 0 12.5405 0 13.1067V24.0898C0 24.6561 0.459102 25.1152 1.02539 25.1152H5.41864C5.98493 25.1152 6.44403 24.6561 6.44403 24.0898V13.1067C6.44403 12.5405 5.98493 12.0814 5.41864 12.0814ZM17.5 2.05078C22.6465 2.05078 26.9829 5.58551 28.2092 10.3547C28.6351 10.1412 29.105 10.0302 29.5814 10.0306H30.2413C28.8535 4.28285 23.6679 0 17.5 0C11.3321 0 6.14653 4.28285 4.75877 10.0306H5.41864C5.89505 10.0302 6.36494 10.1412 6.79082 10.3547C8.01705 5.58551 12.3535 2.05078 17.5 2.05078ZM28.009 26.7324C26.984 29.0954 24.6287 30.7526 21.8933 30.7526H20.5538C20.1245 29.4774 18.9182 28.556 17.5001 28.556C15.7235 28.556 14.278 30.0014 14.278 31.778C14.278 33.5546 15.7234 35 17.5 35C18.9181 35 20.1244 34.0787 20.5537 32.8034H21.8932C25.6154 32.8034 28.7995 30.4571 30.0454 27.166H29.5814C29.0071 27.166 28.4694 27.0074 28.009 26.7324ZM33.9746 12.0814H29.5814C29.0151 12.0814 28.556 12.5405 28.556 13.1067V24.0898C28.556 24.6561 29.0151 25.1152 29.5814 25.1152H33.9746C34.5409 25.1152 35 24.6561 35 24.0898V13.1067C35 12.5405 34.5409 12.0814 33.9746 12.0814Z" fill="white"/>
</svg>
