<svg width="74" height="74" viewBox="0 0 74 74" fill="none" xmlns="http://www.w3.org/2000/svg">
<path d="M11.4566 25.5434H2.16797C0.970672 25.5434 0 26.5141 0 27.7114V50.9328C0 52.1301 0.970672 53.1008 2.16797 53.1008H11.4566C12.6539 53.1008 13.6245 52.1301 13.6245 50.9328V27.7114C13.6245 26.5141 12.6539 25.5434 11.4566 25.5434ZM37 4.33594C47.8812 4.33594 57.0497 11.8094 59.6424 21.8929C60.5428 21.4414 61.5363 21.2067 62.5436 21.2075H63.9387C61.0045 9.05517 50.0406 0 37 0C23.9594 0 12.9955 9.05517 10.0614 21.2075H11.4566C12.4638 21.2067 13.4573 21.4414 14.3577 21.8929C16.9503 11.8094 26.1188 4.33594 37 4.33594ZM59.2189 56.52C57.0518 61.516 52.072 65.0198 46.2886 65.0198H43.4566C42.5488 62.3236 39.9984 60.3756 37.0001 60.3756C33.2439 60.3756 30.1878 63.4316 30.1878 67.1878C30.1878 70.944 33.2438 74 37 74C39.9983 74 42.5487 72.052 43.4565 69.3558H46.2884C54.1583 69.3558 60.8903 64.395 63.5247 57.4367H62.5434C61.3294 57.4367 60.1925 57.1014 59.2189 56.52ZM71.832 25.5434H62.5434C61.3461 25.5434 60.3755 26.5141 60.3755 27.7114V50.9328C60.3755 52.1301 61.3461 53.1008 62.5434 53.1008H71.832C73.0293 53.1008 74 52.1301 74 50.9328V27.7114C74 26.5141 73.0293 25.5434 71.832 25.5434Z" fill="white"/>
</svg>
